<svg width="32" height="32" viewBox="0 0 32 32" fill="none" xmlns="http://www.w3.org/2000/svg">
<g filter="url(#filter0_d_3603_2489)">
<rect x="2" y="1" width="28" height="28" rx="14" fill="#D3D3D3"/>
<path fill-rule="evenodd" clip-rule="evenodd" d="M11.4345 10.4343C11.7469 10.1219 12.2535 10.1219 12.5659 10.4343L16.0002 13.8686L19.4345 10.4343C19.7469 10.1219 20.2535 10.1219 20.5659 10.4343C20.8783 10.7467 20.8783 11.2533 20.5659 11.5657L17.1316 15L20.5659 18.4343C20.8783 18.7467 20.8783 19.2533 20.5659 19.5657C20.2535 19.8781 19.7469 19.8781 19.4345 19.5657L16.0002 16.1314L12.5659 19.5657C12.2535 19.8781 11.7469 19.8781 11.4345 19.5657C11.1221 19.2533 11.1221 18.7467 11.4345 18.4343L14.8688 15L11.4345 11.5657C11.1221 11.2533 11.1221 10.7467 11.4345 10.4343Z" fill="#303036" stroke="#303036" stroke-width="2" stroke-linecap="round"/>
</g>
<defs>
<filter id="filter0_d_3603_2489" x="0" y="0" width="32" height="32" filterUnits="userSpaceOnUse" color-interpolation-filters="sRGB">
<feFlood flood-opacity="0" result="BackgroundImageFix"/>
<feColorMatrix in="SourceAlpha" type="matrix" values="0 0 0 0 0 0 0 0 0 0 0 0 0 0 0 0 0 0 127 0" result="hardAlpha"/>
<feOffset dy="1"/>
<feGaussianBlur stdDeviation="1"/>
<feColorMatrix type="matrix" values="0 0 0 0 0 0 0 0 0 0 0 0 0 0 0 0 0 0 0.05 0"/>
<feBlend mode="normal" in2="BackgroundImageFix" result="effect1_dropShadow_3603_2489"/>
<feBlend mode="normal" in="SourceGraphic" in2="effect1_dropShadow_3603_2489" result="shape"/>
</filter>
</defs>
</svg>
